<?xml version="1.0" standalone="no"?>
<!DOCTYPE svg PUBLIC "-//W3C//DTD SVG 20010904//EN"
 "http://www.w3.org/TR/2001/REC-SVG-20010904/DTD/svg10.dtd">
<svg version="1.0" xmlns="http://www.w3.org/2000/svg"
 width="280.000000pt" height="280.000000pt" viewBox="0 0 280.000000 280.000000"
 preserveAspectRatio="xMidYMid meet">
<metadata>
Created by potrace 1.11, written by Peter Selinger 2001-2013
</metadata>
<g transform="translate(0.000000,280.000000) scale(0.100000,-0.100000)"
fill="#000000" stroke="none">
<path d="M1870 2291 c0 -6 -6 -11 -13 -11 -7 0 -23 -17 -34 -37 -18 -33 -21
-63 -27 -213 -4 -96 -11 -217 -16 -268 -10 -110 -42 -282 -52 -282 -4 0 -12
19 -19 43 -6 23 -22 74 -35 112 -14 39 -26 75 -27 80 -2 11 -85 134 -104 153
-6 6 -15 12 -18 12 -4 0 -19 9 -34 19 -69 49 -180 31 -223 -37 -12 -21 -25
-41 -27 -47 -2 -5 -12 -21 -21 -35 -10 -14 -20 -41 -23 -60 -5 -37 -6 -40 -25
-105 -7 -22 -17 -60 -23 -84 -5 -23 -12 -41 -15 -38 -2 2 -7 87 -9 188 -7 267
-24 418 -51 440 -8 6 -14 17 -14 23 0 20 -68 46 -119 46 -39 0 -59 -7 -97 -33
-114 -78 -166 -227 -163 -467 2 -116 15 -228 33 -275 16 -40 25 -71 31 -101 3
-18 15 -40 26 -50 10 -9 19 -22 19 -29 0 -18 92 -110 131 -131 40 -21 41 -21
138 -32 69 -8 76 -7 101 14 15 13 30 20 34 16 4 -4 6 -2 4 4 -2 6 15 28 37 50
42 40 107 157 120 213 9 42 29 39 43 -7 7 -21 23 -58 37 -83 13 -24 29 -55 35
-68 23 -52 124 -125 188 -136 109 -18 173 25 247 167 26 51 52 111 56 133 4
22 12 58 18 80 29 107 60 415 62 604 1 141 0 149 -24 184 -13 20 -27 33 -31
30 -3 -4 -6 -2 -6 4 0 5 -21 11 -46 12 -26 0 -50 4 -55 7 -5 3 -9 0 -9 -5z"/>
<path d="M400 1063 c-40 -14 -81 -46 -80 -62 1 -18 35 -44 105 -81 96 -51 107
-59 98 -73 -3 -5 -1 -7 5 -3 6 3 64 -20 129 -53 65 -33 135 -66 156 -75 21 -8
45 -22 53 -31 9 -8 28 -15 44 -15 16 0 49 -9 74 -19 58 -25 244 -59 366 -67
99 -7 274 8 371 30 31 8 89 29 130 48 41 20 75 35 76 34 2 -1 4 -11 6 -22 8
-41 32 -110 44 -124 60 -68 88 -88 134 -94 94 -13 171 24 189 89 23 81 -13
228 -78 324 -42 62 -72 76 -142 64 -25 -4 -52 -8 -60 -8 -8 -1 -35 -20 -60
-42 -87 -80 -144 -114 -212 -127 -21 -4 -38 -11 -38 -15 0 -19 -110 -35 -235
-36 -154 0 -225 9 -281 35 -22 11 -54 20 -70 20 -16 0 -42 7 -59 16 -16 9 -55
24 -85 34 -85 27 -280 127 -280 143 0 4 -6 7 -13 7 -7 0 -59 27 -115 60 -55
33 -107 60 -114 60 -7 -1 -33 -8 -58 -17z"/>
</g>
</svg>
